# xmcd
#
# Track frame offsets:
#	150
#	18537
#	36286
#	53919
#	71761
#	88531
#	103723
#	123540
#	141643
#	158294
#	173974
#	188422
#	212344
#	241628
#
# Disc length: 3307 seconds
#
# Revision: 1
# Processed by: cddbd v1.5.2PL0 Copyright (c) Steve Scherf et al.
# Submitted via: audiograbber 1.83.01
#
DISCID=b80ce90e
DTITLE=Billy Ray Cyrus - Home At Last
DYEAR=2007
DGENRE=Country
TTITLE0=Ready, Set, Don't Go
TTITLE1=The Beginning
TTITLE2=The Buffalo
TTITLE3=Flying By
TTITLE4=Brown Eyed Girl
TTITLE5=Don't Give Up On Me
TTITLE6=You've Got A Friend
TTITLE7=You Can't Lose Me
TTITLE8=I Can't Live Without Your Love
TTITLE9=My Everything
TTITLE10=Put A Little Love In Your Heart
TTITLE11=Over The Rainbow
TTITLE12=Stand
TTITLE13=14 - Bonus Track - JB
EXTD=
EXTT0=
EXTT1=
EXTT2=
EXTT3=
EXTT4=
EXTT5=
EXTT6=
EXTT7=
EXTT8=
EXTT9=
EXTT10=
EXTT11=
EXTT12=
EXTT13=
PLAYORDER=
